<svg xmlns="http://www.w3.org/2000/svg" width="37" height="36" viewBox="0 0 37 36"><path fill="#2ecc71" d="M36.01 20.33l-8.98 8.94-1.49 1.49a14.88 14.88 0 0 1-20.95 0 14.7 14.7 0 0 1 0-20.86l1.5-1.49 2.99 2.98-1.5 1.49a10.5 10.5 0 0 0 0 14.9 10.62 10.62 0 0 0 14.96 0l1.5-1.49 8.98-8.94a2.12 2.12 0 0 1 2.99 0 2.1 2.1 0 0 1 0 2.98zm-10.47-1.49a10.5 10.5 0 0 0 0-14.9 10.63 10.63 0 0 0-14.97 0L6.09 8.41l2.99 2.98 4.49-4.47a6.36 6.36 0 0 1 8.97 0 6.3 6.3 0 0 1 0 8.94l-4.48 4.47a2.11 2.11 0 1 1-3-2.98l3-2.98a2.11 2.11 0 1 0-3-2.98l-2.99 2.98a6.3 6.3 0 0 0 0 8.94 6.37 6.37 0 0 0 8.98 0z"/></svg>