<svg xmlns="http://www.w3.org/2000/svg" width="18" height="19" viewBox="0 0 18 19"><path fill="#fff" d="M17.71 11.25a8.92 8.92 0 0 1-8.76 7.15c-.6 0-1.21-.06-1.8-.19A8.92 8.92 0 0 1 2.63 3.12a9.35 9.35 0 0 1 2.84-1.91 9.07 9.07 0 0 1 5.29-.52 8.93 8.93 0 0 1 6.96 10.56zm-4.52 4.37a7.2 7.2 0 0 0 1.97-1.98 7.73 7.73 0 0 0 1.13-2.68l.05-.34-.24-.07-.05-.01c-.21-.05-.5-.12-.84-.17-.89-.15-2.13-.25-3.48-.03.91 2.5 1.34 4.59 1.46 5.28zm-7.16.73a7.7 7.7 0 0 0 2.92.59 7.6 7.6 0 0 0 2.91-.59l.05-.02c-.15-.83-.6-3.04-1.61-5.64l-.05.01c-.46.16-.87.34-1.27.53l-.17.07c-.37.18-.7.37-1.02.57l-.18.11c-.3.2-.59.4-.84.6l-.12.09a9.6 9.6 0 0 0-1.3 1.23l-.07.09c-.16.18-.3.35-.4.51l-.07.08-.28.41-.04.06-.16.28a7.78 7.78 0 0 0 1.7 1.02zM1.47 9.21v.24a7.58 7.58 0 0 0 1.27 4.19c.18.27.4.51.62.75l.22-.33.04-.06.34-.46.08-.1a10.73 10.73 0 0 1 1.2-1.33 17.44 17.44 0 0 1 .88-.77c.27-.21.56-.42.86-.61l.17-.12c.31-.19.64-.38 1-.55l.15-.08a10.25 10.25 0 0 1 1.47-.55c-.19-.44-.4-.88-.61-1.31-3.1.92-6.08 1.07-7.28 1.09h-.4zM5.8 2.67a7.85 7.85 0 0 0-2.13 1.48 7.98 7.98 0 0 0-1.61 2.39c-.18.43-.32.88-.42 1.34l.33-.01a29.81 29.81 0 0 0 5.86-.75l.7-.18A46.58 46.58 0 0 0 5.8 2.67zm7.35.57a7.7 7.7 0 0 0-2.68-1.13 7.6 7.6 0 0 0-3.02 0l-.19.05c.37.5 1.6 2.21 2.75 4.31.3-.11.58-.23.84-.35l.01-.01a8.39 8.39 0 0 0 3.04-2.25c-.25-.22-.49-.44-.75-.62zm3.15 4.7a7.43 7.43 0 0 0-1.13-2.68c-.13-.18-.29-.34-.43-.51a9.94 9.94 0 0 1-3.22 2.44l-.06.03c-.27.14-.56.26-.86.39.18.37.35.74.51 1.12l.16.4c.27-.04.54-.06.81-.08l.14-.01.67-.02H13l.74.02h.05a11.67 11.67 0 0 1 .77.05l.55.05.04.01.5.06.12.02.31.05.08.01.27.05c0-.47-.05-.94-.14-1.4z"/></svg>