<svg xmlns="http://www.w3.org/2000/svg" width="20" height="20" viewBox="0 0 20 20"><path fill="#191f21" d="M20 10a10.02 10.02 0 0 1-12.84 9.58c.51-.8.85-1.52 1.02-2.13l.7-2.75c.17.34.5.63.95.88.46.25.96.37 1.49.37 1.05 0 1.98-.3 2.8-.89a5.78 5.78 0 0 0 1.92-2.46c.45-1.04.68-2.21.68-3.51 0-.99-.26-1.92-.78-2.79a5.86 5.86 0 0 0-2.24-2.12 6.67 6.67 0 0 0-3.32-.82c-.91 0-1.76.13-2.55.38a6.54 6.54 0 0 0-4.3 4.13 5.67 5.67 0 0 0 .23 4.12c.35.69.86 1.17 1.53 1.45.26.1.42.01.5-.26 0-.06.04-.2.1-.41l.1-.39c.05-.2 0-.38-.14-.56a2.95 2.95 0 0 1-.67-1.96 4.7 4.7 0 0 1 4.92-4.79c1.32 0 2.34.35 3.07 1.06a3.7 3.7 0 0 1 1.1 2.78c0 1.47-.3 2.73-.9 3.76-.58 1.03-1.35 1.55-2.28 1.55-.53 0-.95-.19-1.27-.57a1.47 1.47 0 0 1-.3-1.36c.07-.3.18-.71.34-1.22.16-.5.3-.95.4-1.34.1-.38.14-.71.14-.98 0-.43-.11-.79-.35-1.08-.23-.29-.57-.43-1-.43-.54 0-1 .25-1.37.74a3 3 0 0 0-.56 1.85c0 .64.11 1.16.33 1.59l-1.3 5.44c-.14.61-.2 1.38-.16 2.31A9.97 9.97 0 0 1 0 10a10.02 10.02 0 0 1 18.66-5.02A9.79 9.79 0 0 1 20 10z"/></svg>