<svg xmlns="http://www.w3.org/2000/svg" width="19" height="18" viewBox="0 0 19 18"><path fill="#191f21" d="M9.48 14.46a2 2 0 0 0-.05-.44 4.42 4.42 0 0 0-.1-.38c-.04-.12-.1-.25-.2-.38l-.22-.33a2.51 2.51 0 0 0-.29-.32 14.98 14.98 0 0 0-.64-.55l-.34-.25a7.81 7.81 0 0 1-.35-.25l-.33-.22c-.13-.02-.3-.02-.54-.02a6.72 6.72 0 0 0-2.32.34c-.4.13-.76.3-1.06.5A2.35 2.35 0 0 0 2 14.13c0 .49.13.93.39 1.31.25.39.59.69 1 .91a5.57 5.57 0 0 0 2.68.66c.42 0 .83-.05 1.22-.14.38-.09.74-.23 1.08-.42.34-.19.61-.46.8-.8.2-.34.3-.73.3-1.19zm-1.3-9.32a6.92 6.92 0 0 0-.69-2.79 3.1 3.1 0 0 0-.9-1.13 2.1 2.1 0 0 0-1.3-.44c-.67 0-1.19.25-1.56.75a2.9 2.9 0 0 0-.55 1.78 4.91 4.91 0 0 0 .5 2.2c.18.37.38.71.61 1.01.23.3.52.54.85.73.33.19.68.28 1.05.28.7 0 1.2-.22 1.52-.66.31-.43.47-1.01.47-1.73zM6.76 0h4.73l-1.46.85H8.57c.51.33.9.78 1.19 1.37a4.13 4.13 0 0 1 .17 3.25c-.17.41-.37.75-.6 1-.24.25-.48.48-.72.7-.24.21-.44.43-.6.66a1.2 1.2 0 0 0-.25.73 1 1 0 0 0 .17.55c.12.18.28.35.47.52l.63.52a6.15 6.15 0 0 1 1.33 1.31 3.63 3.63 0 0 1 .64 2.07c0 1.16-.5 2.17-1.51 3.05-1.1.95-2.61 1.42-4.55 1.42a8.16 8.16 0 0 1-2.6-.47 4.94 4.94 0 0 1-1.18-.63 2.95 2.95 0 0 1-.84-.96A2.66 2.66 0 0 1 0 14.63c0-.44.13-.93.4-1.46a3.2 3.2 0 0 1 1.04-1.2c.46-.34.98-.59 1.57-.77a13.02 13.02 0 0 1 3.3-.53c-.47-.6-.7-1.14-.7-1.62a1.5 1.5 0 0 1 .08-.46l.09-.23.07-.24a5.6 5.6 0 0 1-.76.06c-1.07 0-2-.36-2.76-1.06a3.48 3.48 0 0 1-1.15-2.66c0-1.01.34-1.92 1.03-2.71A4.54 4.54 0 0 1 4.74.22 9.33 9.33 0 0 1 6.76 0zM16 3V0h-1v3h-3v1h3v3h1V4h3V3z"/></svg>