<svg xmlns="http://www.w3.org/2000/svg" width="36" height="36" viewBox="0 0 36 36"><path fill="#2ecc71" d="M27.13 26.63c0 .76-.1 1.5-.28 2.21h1.38a3.33 3.33 0 1 0 0-6.65h-2.31a8.72 8.72 0 0 1 1.2 4.44zm-8.88 8.87H9.37a8.83 8.83 0 1 1-5.3-15.95 15.28 15.28 0 0 1-1.35-6.24C2.72 5.96 7.69 0 13.82 0c2.8 0 5.36 1.25 7.32 3.31a7.33 7.33 0 0 1 3.77-1.09c4.9 0 8.87 4.97 8.87 11.09 0 2.1-.5 4.04-1.3 5.71a7.77 7.77 0 0 1-4.25 14.26h-4.1a8.84 8.84 0 0 1-5.88 2.22zm6.66-22.19c0 1.57-.25 3.05-.68 4.44h3.96a8.66 8.66 0 0 0 1.15-4.44c0-3.67-1.98-6.65-4.43-6.65a3 3 0 0 0-1.33.34 15.4 15.4 0 0 1 1.33 6.31zM13.8 4.44c-3.67 0-6.65 3.97-6.65 8.87 0 4.9 2.98 8.88 6.65 8.88 3.68 0 6.66-3.98 6.66-8.88s-2.98-8.87-6.66-8.87zm7.3 18.82a10.05 10.05 0 0 1-7.3 3.37c-2.8 0-5.34-1.3-7.3-3.37a4.42 4.42 0 0 0 2.87 7.8h8.87a4.43 4.43 0 0 0 2.87-7.8zm2.81-4.6z"/></svg>